<?xml version="1.0" encoding="UTF-8" standalone="no"?>
<svg width="471px" height="74px" viewBox="0 0 471 74" version="1.1" xmlns="http://www.w3.org/2000/svg" xmlns:xlink="http://www.w3.org/1999/xlink" xmlns:sketch="http://www.bohemiancoding.com/sketch/ns">
    <!-- Generator: Sketch 3.2.2 (9983) - http://www.bohemiancoding.com/sketch -->
    <title>Fill 6</title>
    <desc>Created with Sketch.</desc>
    <defs></defs>
    <g id="Page-1" stroke="none" stroke-width="1" fill="none" fill-rule="evenodd" sketch:type="MSPage">
        <g id="Fill-6" sketch:type="MSLayerGroup" fill="#FFFFFF">
            <path d="M407.997197,48.846 C408.365197,42.308 411.038197,38.339 412.117197,38.339 C412.783197,38.339 414.159197,39.025 414.159197,41.145 C414.159197,44.801 411.027197,48.17 407.945197,49.781 L407.997197,48.846 L407.997197,48.846 Z M375.456197,50.764 C375.152197,49.524 374.992197,47.056 374.992197,45.799 C374.997197,32.351 380.689197,21.382 382.075197,21.382 L382.108197,21.383 C383.911197,21.504 384.825197,23.045 384.825197,25.966 C384.825197,32.235 381.267197,41.987 376.173197,49.681 L375.456197,50.764 L375.456197,50.764 Z M272.766197,39.077 L272.766197,39.077 C271.315197,38.841 267.031197,38.221 264.460197,38.17 C265.020197,31.102 265.983197,23.629 267.237197,17.001 L267.306197,16.634 L267.678197,16.596 C268.482197,16.515 269.171197,16.478 269.846197,16.478 C276.186197,16.478 280.665197,20.701 280.738197,26.748 C280.830197,34.172 273.088197,38.884 272.766197,39.077 L272.766197,39.077 Z M256.217197,23.153 C254.726197,29.436 255.011197,37.161 255.241197,43.368 C255.518197,50.901 255.702197,55.878 253.106197,56.31 C252.954197,56.336 252.800197,56.348 252.647197,56.348 C249.960197,56.348 247.240197,52.324 247.240197,44.632 C247.240197,38.144 249.375197,28.974 255.370197,22.692 L256.406197,21.606 L256.558197,21.72 L256.217197,23.153 L256.217197,23.153 Z M215.219197,50.634 C215.219197,43.378 218.441197,39.182 219.415197,39.182 C220.081197,39.182 221.457197,39.868 221.457197,41.988 C221.457197,46.751 216.381197,50.066 215.219197,50.634 L215.219197,50.634 Z M124.874197,50.067 C124.819197,43.035 128.097197,38.615 129.071197,38.615 C129.737197,38.615 131.113197,39.301 131.113197,41.422 C131.113197,46.182 126.131197,49.41 124.874197,50.067 L124.874197,50.067 Z M465.453197,43.751 L465.453197,43.751 C465.291197,48.16 462.148197,60.333 455.091197,60.333 C453.335197,60.333 451.854197,59.68 450.808197,58.445 C449.274197,56.633 448.755197,53.684 449.348197,50.143 C450.175197,45.205 452.411197,41.64 454.206197,38.776 C455.663197,36.452 456.815197,34.616 456.815197,32.82 C456.815197,31.489 455.029197,28.997 453.588197,29.555 C451.924197,30.195 446.862197,32.14 442.855197,32.14 C440.666197,32.14 438.881197,31.503 437.889197,30.269 C438.206197,27.142 437.008197,20.407 435.955197,19.433 C433.569197,19.433 427.284197,20.062 427.284197,28.257 C427.284197,30.618 428.194197,34.337 430.665197,36.833 C429.329197,47.924 423.559197,59.969 416.264197,60.548 C412.369197,60.852 409.444197,58.566 408.355197,54.129 C413.173197,53.066 421.379197,48.571 421.101197,39.103 C420.926197,33.146 417.365197,29.589 411.575197,29.589 C405.746197,29.589 397.447197,38.082 397.029197,53.755 C395.238197,56.401 392.061197,59.827 387.486197,60.543 C387.008197,60.618 386.519197,60.656 386.032197,60.656 C383.818197,60.656 381.298197,59.733 379.550197,58.19 L379.843197,57.801 C393.352197,39.85 397.115197,17.576 392.956197,7.678 C392.069197,5.566 389.194197,4.253 385.110197,5.035 C380.213197,5.972 368.909197,21.183 368.909197,44.882 C368.909197,46.278 369.060197,51.53 370.200197,56.824 C367.516197,59.167 364.723197,60.549 362.335197,60.549 C358.010197,60.549 355.512197,56.648 355.302197,49.564 C355.123197,43.536 355.982197,36.7 357.666197,29.994 L358.479197,29.997 C360.069197,29.997 361.680197,29.953 363.267197,29.867 C365.855197,29.727 367.837197,28.831 369.000197,27.275 C369.794197,26.211 370.049197,25.045 370.049197,24.282 C369.471197,24.39 368.478197,24.496 366.738197,24.591 C365.039197,24.684 362.887197,24.492 360.043197,24.007 L359.464197,23.909 C361.913197,16.488 365.272197,9.952 367.334197,7.049 C366.766197,6.329 364.444197,4.018 359.885197,4.018 C356.960197,4.018 355.465197,4.849 355.451197,4.858 C354.621197,5.546 351.053197,11.644 348.307197,21.411 L345.121197,20.617 C333.998197,17.836 321.289197,14.661 312.023197,15.158 C299.969197,15.81 299.087197,23.649 299.268197,26.989 C299.367197,28.807 300.376197,30.278 300.864197,30.887 C302.293197,30.066 307.046197,27.862 314.432197,27.046 C317.239197,26.736 319.928197,26.585 322.656197,26.585 C328.949197,26.585 334.204197,27.387 339.768197,28.237 C341.741197,28.538 343.780197,28.849 345.860197,29.12 L346.390197,29.189 C345.096197,35.678 344.335197,42.764 344.335197,49.216 C344.335197,51.73 344.544197,54.397 344.892197,56.711 C342.910197,59.144 340.694197,60.549 338.581197,60.549 C337.191197,60.549 335.970197,59.88 335.052197,58.612 C332.240197,54.732 332.281197,45.557 335.150197,36.796 C335.236197,36.534 335.099197,36.266 334.970197,36.088 C334.423197,35.334 332.888197,34.572 330.689197,34.572 C328.760197,34.572 326.689197,35.162 324.687197,36.279 L324.355197,37.674 C321.653197,49.106 318.585197,59.731 314.472197,60.065 C311.907197,60.268 310.315197,57.715 310.307197,53.317 C310.296197,48.131 312.097197,41.367 315.376197,34.271 C315.388197,34.246 315.400197,34.222 315.410197,34.199 C314.928197,33.787 313.896197,33.547 312.559197,33.547 C309.565197,33.547 305.439197,34.736 304.307197,36.442 C303.480197,37.688 299.455197,44.18 298.561197,53.318 L298.410197,53.334 C296.280197,43.412 284.104197,41.248 280.751197,40.937 C285.913197,39.253 292.279197,32.992 292.597197,26.378 C292.786197,22.456 291.318197,18.648 288.464197,15.654 C284.497197,11.491 278.229197,9.199 270.815197,9.199 C252.795197,9.199 239.456197,22.622 238.375197,41.841 C238.207197,44.832 238.486197,48.187 239.116197,51.382 C237.046197,54.137 231.343197,60.724 224.373197,60.724 C220.378197,60.724 216.996197,57.829 215.658197,53.94 C221.350197,53.253 228.698197,49 228.698197,40.422 C228.698197,31.942 222.131197,31.128 218.873197,31.282 C212.999197,31.56 204.290197,39.037 204.290197,55.682 C204.290197,56.832 204.436197,58.317 204.627197,59.51 C203.460197,60.395 201.450197,61.632 199.645197,61.632 C198.501197,61.632 197.540197,61.193 196.790197,60.329 C193.597197,56.652 195.094197,46.092 195.732197,41.584 C195.806197,41.065 195.865197,40.649 195.898197,40.364 C196.202197,37.766 195.650197,35.528 194.345197,34.061 C193.261197,32.842 191.722197,32.198 189.895197,32.198 C183.029197,32.198 177.286197,39.074 175.566197,43.72 L174.582197,46.378 L174.411197,46.379 L174.598197,43.514 C174.711197,41.789 175.054197,36.539 172.807197,34.102 C171.957197,33.18 170.666197,32.719 169.202197,32.697 C160.133197,32.697 155.412197,44.443 155.365197,44.562 L154.240197,47.423 L154.100197,47.416 L154.402197,44.33 C154.730197,40.969 155.442197,36.04 156.971197,31.536 C156.730197,31.086 155.687197,30.645 154.054197,30.645 C151.394197,30.645 148.186197,31.82 147.013197,34.446 C147.002197,34.49 143.983197,44.301 144.316197,55.237 C141.307197,58.543 137.661197,60.44 134.029197,60.44 C130.255197,60.44 126.631197,57.878 125.442197,53.841 C130.803197,53.457 138.176197,48.772 138.176197,39.365 C138.176197,33.594 134.390197,29.865 128.529197,29.865 C122.415197,29.865 113.946197,38.64 113.946197,55.115 C113.946197,55.842 114.004197,56.86 114.072197,57.607 C111.844197,59.355 109.338197,60.447 107.230197,60.447 C105.978197,60.447 104.961197,60.048 104.207197,59.261 C102.135197,57.097 102.343197,52.285 102.564197,47.191 C102.803197,41.675 103.073197,35.424 100.281197,32.509 C99.126197,31.302 97.528197,30.716 95.397197,30.716 C85.911197,30.716 79.942197,42.423 79.901197,42.541 L79.433197,42.352 C80.052197,37.132 81.411197,28.832 84.927197,20.506 C92.031197,20.977 98.515197,21.23 104.017197,21.23 C110.085197,21.23 115.497197,20.961 120.560197,20.407 C135.074197,18.821 138.121197,12.213 138.121197,6.948 C138.121197,4.207 136.736197,1.39 135.613197,0 C133.789197,2.075 125.352197,10.097 103.263197,11.136 C99.532197,11.311 95.487197,11.266 90.907197,10.994 L90.027197,10.943 L90.522197,10.214 C92.239197,7.693 94.022197,5.482 95.967197,3.469 C94.481197,1.588 91.186197,0.207 88.078197,0.207 C87.073197,0.207 86.146197,0.347 85.322197,0.625 C82.948197,2.28 80.376197,5.659 78.184197,9.827 C73.041197,9.216 67.418197,8.426 62.311197,7.701 C49.987197,5.952 38.347197,4.301 27.808197,4.301 C24.756197,4.301 22.013197,4.439 19.422197,4.722 C11.746197,5.561 6.24319701,7.787 3.06619701,11.337 C0.0861970117,14.668 -0.198802988,18.477 0.0861970117,21.087 C0.525197012,25.099 2.60819701,27.641 3.54119701,28.595 C4.79519701,26.55 10.275197,20.308 31.191197,18.022 C36.277197,17.466 42.448197,17.421 51.123197,17.889 C47.340197,32.689 45.222197,55.473 48.782197,69.257 C50.292197,72.692 52.963197,73.216 54.419197,73.216 C56.785197,73.216 58.730197,72.109 59.415197,71.665 C54.957197,52.867 60.292197,29.51 64.094197,18.835 L74.175197,19.686 C71.295197,28.94 69.588197,40.159 69.588197,51.007 C69.588197,61.678 71.673197,69.153 71.694197,69.227 C72.122197,70.254 73.517197,72.648 77.275197,72.648 C78.896197,72.648 80.581197,72.082 81.308197,71.805 C79.534197,62.677 82.313197,51.688 86.096197,47.025 C87.384197,45.437 88.724197,44.632 90.079197,44.632 C90.936197,44.632 91.636197,44.914 92.161197,45.471 C93.686197,47.088 93.468197,50.802 93.216197,55.103 C92.890197,60.675 92.519197,66.991 95.682197,70.344 C97.198197,71.951 99.380197,72.733 102.356197,72.733 C107.802197,72.733 113.234197,67.154 115.689197,64.189 C117.423197,68.378 121.313197,72.865 128.529197,72.865 C135.906197,72.865 141.850197,67.628 145.250197,63.297 L145.485197,64.282 C145.977197,66.347 146.621197,68.299 147.399197,70.082 C147.990197,71.009 150.885197,72.865 155.042197,72.865 C156.729197,72.865 157.606197,72.554 157.961197,72.351 C156.248197,68.67 155.451197,62.538 156.182197,58.442 C157.551197,50.774 160.988197,45.418 164.540197,45.418 C164.977197,45.418 165.361197,45.59 165.652197,45.915 C166.814197,47.214 166.397197,50.948 165.915197,55.273 C165.671197,57.456 165.418197,59.715 165.418197,61.49 C165.418197,69.144 168.123197,72.865 173.686197,72.865 C174.980197,72.865 176.075197,72.297 176.550197,72.006 C175.287197,64.892 177.097197,51.394 180.781197,46.914 C181.623197,45.89 182.533197,45.371 183.486197,45.371 C184.050197,45.371 184.522197,45.573 184.890197,45.973 C186.186197,47.383 185.881197,51.008 185.495197,55.597 C185.303197,57.887 185.103197,60.255 185.103197,62.49 C185.103197,69.724 188.072197,73.24 194.178197,73.24 C199.998197,73.24 204.989197,67.771 206.667197,65.666 C208.569197,69.128 212.599197,73.432 219.441197,73.432 C231.087197,73.432 238.788197,62.941 241.231197,58.495 C245.256197,68.535 251.745197,73.563 257.410197,72.327 C261.949197,71.334 263.973197,67.6 263.973197,60.221 C263.973197,60.08 263.965197,59.805 263.954197,59.406 C263.887197,57.166 263.713197,51.214 264.149197,42.998 L264.268197,40.74 L265.112197,42.838 C265.577197,43.992 266.247197,44.878 267.054197,45.402 C269.291197,45.987 272.153197,45.393 275.160197,43.835 C275.498197,43.925 283.645197,46.171 283.645197,52.559 C283.645197,56.12 280.719197,59.023 276.840197,59.31 C272.596197,59.624 269.729197,57.936 268.956197,57.417 C267.746197,57.851 265.766197,60.458 265.766197,62.599 C265.766197,67.325 271.809197,73.969 283.111197,73.196 C291.345197,72.64 297.158197,67.769 298.497197,60.419 L298.593197,60.442 C299.158197,65.136 301.220197,72.143 308.482197,72.57 C316.142197,73.029 320.864197,63.876 323.268197,58.07 L323.371197,58.149 C323.849197,64.847 326.089197,72.57 333.956197,72.57 C339.640197,72.57 344.360197,68.045 346.976197,64.365 C349.298197,70.003 353.132197,72.589 357.585197,72.589 C362.396197,72.589 367.881197,70.128 373.195197,65.229 C375.788197,70.066 379.816197,72.532 384.409197,72.532 C391.629197,72.532 395.963197,67.148 397.904197,63.938 L398.407197,63.105 L398.790197,63.999 C400.474197,67.918 404.057197,72.589 411.575197,72.589 C427.390197,72.589 435.000197,51.414 436.814197,39.893 C438.694197,40.066 441.694197,39.733 443.668197,39.032 C444.152197,39.983 443.589197,41.62 442.023197,44.695 C440.029197,48.61 437.015197,54.526 437.091197,59.938 C437.143197,63.609 438.480197,72.19 449.738197,72.57 C455.043197,72.739 460.338197,70.235 464.176197,65.727 C468.220197,60.976 470.448197,54.283 470.447197,46.882 C470.446197,45.337 467.569197,43.597 465.453197,43.751 L465.453197,43.751 Z" sketch:type="MSShapeGroup"></path>
        </g>
    </g>
</svg>