<?xml version="1.0" encoding="UTF-8" standalone="no"?>
<svg width="102px" height="82px" viewBox="0 0 102 82" version="1.1" xmlns="http://www.w3.org/2000/svg" xmlns:xlink="http://www.w3.org/1999/xlink" xmlns:sketch="http://www.bohemiancoding.com/sketch/ns">
    <!-- Generator: Sketch 3.2.2 (9983) - http://www.bohemiancoding.com/sketch -->
    <title>Fill 7</title>
    <desc>Created with Sketch.</desc>
    <defs></defs>
    <g id="Page-1" stroke="none" stroke-width="1" fill="none" fill-rule="evenodd" sketch:type="MSPage">
        <g id="Fill-7" sketch:type="MSLayerGroup" fill="#fff">
            <path d="M83.0109504,31.69 C80.0669504,34.398 74.6689504,36.723 69.0839504,37.957 C70.0569504,30.99 71.2369504,21.809 71.5149504,14.738 C71.5149504,14.738 73.8089504,14.551 75.5109504,14.551 C81.2999504,14.551 85.6069504,16.734 87.0329504,20.391 C88.3979504,23.895 86.8949504,28.119 83.0109504,31.69 L83.0109504,31.69 Z M78.9909504,62.097 C77.4489504,67.652 74.2849504,71.102 70.7329504,71.102 C69.7669504,71.102 68.6539504,70.622 68.0629504,69.896 C65.7049504,67.001 66.2519504,58.765 67.8139504,47.047 C70.1509504,46.81 73.1319504,46.305 75.5059504,45.721 C79.9079504,48.37 80.6779504,56.017 78.9909504,62.097 L78.9909504,62.097 Z M78.9249504,4.87 C76.6879504,4.87 73.7759504,5.062 71.2269504,5.338 C71.2269504,5.338 71.1349504,4.253 70.9909504,3.61 C70.5169504,1.496 67.1089504,0 62.7669504,0 C60.3949504,0 58.0899504,0.478 56.2229504,1.351 C56.8919504,3.215 57.6359504,7.394 57.6359504,7.394 C43.0459504,9.592 30.9849504,10.738 21.8109504,10.738 C12.8559504,10.738 6.05595039,9.7 1.58795039,7.65 C-0.559049615,12.972 -0.530049615,17.915 1.68195039,21.611 C3.55095039,24.734 6.78895039,26.652 10.7979504,27.012 C11.8999504,27.111 13.0619504,27.161 14.2519504,27.161 C21.8589504,27.161 30.9669504,24.917 38.1119504,22.933 C36.1299504,33.084 33.7429504,47.932 34.3669504,57.241 C34.9559504,66.04 38.0869504,70.855 43.6719504,71.552 C44.0419504,71.598 44.4159504,71.621 44.7819504,71.621 C47.0819504,71.621 48.7139504,70.7 49.3209504,70.294 C45.9189504,58.696 45.6029504,36.505 48.5529504,19.891 C51.2979504,19.087 55.4249504,17.916 58.5749504,17.111 C58.8249504,23.81 58.5289504,32.281 58.2089504,38.582 C56.3979504,38.459 54.3409504,38.27 53.6949504,38.202 C53.2589504,39.054 52.7109504,41.054 52.9139504,42.879 C53.1679504,45.168 54.7619504,46.237 57.7709504,46.754 C57.3249504,55.239 56.9479504,64.446 57.9239504,70.182 C59.5579504,79.778 66.2319504,81.211 70.0649504,81.212 L70.0659504,81.212 C76.1419504,81.212 83.5169504,77.246 87.9289504,70.884 C92.1989504,64.727 93.9749504,57.51 92.5789504,50.927 C91.7789504,47.158 89.3509504,43.934 85.8839504,41.928 C96.7259504,36.767 102.14195,27.267 100.95195,18.837 C99.6429504,9.565 92.2049504,4.87 78.9249504,4.87 L78.9249504,4.87 Z" sketch:type="MSShapeGroup"></path>
        </g>
    </g>
</svg>